<mxfile host="65bd71144e">
    <diagram id="Uxn-_LlJjJHdJNiOjMAY" name="Page-1">
        <mxGraphModel dx="1710" dy="852" grid="1" gridSize="10" guides="1" tooltips="1" connect="1" arrows="1" fold="1" page="0" pageScale="1" pageWidth="827" pageHeight="1169" background="#ffffff" math="0" shadow="0">
            <root>
                <mxCell id="0"/>
                <mxCell id="1" parent="0"/>
                <mxCell id="Es5IA8GZJjC9We63MNXz-4" value="" style="edgeStyle=orthogonalEdgeStyle;rounded=0;orthogonalLoop=1;jettySize=auto;html=1;" parent="1" source="Es5IA8GZJjC9We63MNXz-1" target="Es5IA8GZJjC9We63MNXz-3" edge="1">
                    <mxGeometry relative="1" as="geometry"/>
                </mxCell>
                <mxCell id="Es5IA8GZJjC9We63MNXz-1" value="Redmine" style="rounded=0;whiteSpace=wrap;html=1;" parent="1" vertex="1">
                    <mxGeometry x="-80" y="160" width="120" height="60" as="geometry"/>
                </mxCell>
                <mxCell id="Es5IA8GZJjC9We63MNXz-6" value="" style="edgeStyle=orthogonalEdgeStyle;rounded=0;orthogonalLoop=1;jettySize=auto;html=1;" parent="1" source="Es5IA8GZJjC9We63MNXz-3" target="Es5IA8GZJjC9We63MNXz-5" edge="1">
                    <mxGeometry relative="1" as="geometry"/>
                </mxCell>
                <mxCell id="Es5IA8GZJjC9We63MNXz-3" value="Рассылка уведомлений по e-mail" style="rounded=0;whiteSpace=wrap;html=1;" parent="1" vertex="1">
                    <mxGeometry x="120" y="160" width="120" height="60" as="geometry"/>
                </mxCell>
                <mxCell id="2" style="edgeStyle=orthogonalEdgeStyle;html=1;exitX=1;exitY=0.25;exitDx=0;exitDy=0;entryX=0.5;entryY=0.5;entryDx=0;entryDy=0;entryPerimeter=0;rounded=0;" edge="1" parent="1" source="Es5IA8GZJjC9We63MNXz-5" target="Es5IA8GZJjC9We63MNXz-24">
                    <mxGeometry relative="1" as="geometry">
                        <Array as="points">
                            <mxPoint x="570" y="175"/>
                            <mxPoint x="570" y="80"/>
                        </Array>
                    </mxGeometry>
                </mxCell>
                <mxCell id="3" style="edgeStyle=orthogonalEdgeStyle;rounded=0;html=1;exitX=1;exitY=0.75;exitDx=0;exitDy=0;entryX=0.07;entryY=0.4;entryDx=0;entryDy=0;entryPerimeter=0;" edge="1" parent="1" source="Es5IA8GZJjC9We63MNXz-5" target="Es5IA8GZJjC9We63MNXz-22">
                    <mxGeometry relative="1" as="geometry">
                        <Array as="points">
                            <mxPoint x="570" y="205"/>
                            <mxPoint x="570" y="286"/>
                        </Array>
                    </mxGeometry>
                </mxCell>
                <mxCell id="Es5IA8GZJjC9We63MNXz-5" value="Redmine Issue Event Emitter" style="whiteSpace=wrap;html=1;rounded=0;" parent="1" vertex="1">
                    <mxGeometry x="380" y="160" width="120" height="60" as="geometry"/>
                </mxCell>
                <mxCell id="Es5IA8GZJjC9We63MNXz-22" value="Другие сервисы" style="ellipse;shape=cloud;whiteSpace=wrap;html=1;shadow=1;fillColor=default;" parent="1" vertex="1">
                    <mxGeometry x="600" y="230" width="240" height="140" as="geometry"/>
                </mxCell>
                <mxCell id="Es5IA8GZJjC9We63MNXz-24" value="Клиенты (web browser)" style="shape=umlActor;verticalLabelPosition=bottom;verticalAlign=top;html=1;outlineConnect=0;shadow=1;fillColor=none;" parent="1" vertex="1">
                    <mxGeometry x="630" y="20" width="70" height="120" as="geometry"/>
                </mxCell>
            </root>
        </mxGraphModel>
    </diagram>
</mxfile>